<?xml version="1.0" encoding="UTF-8"?>
<svg version="1.1" xmlns="http://www.w3.org/2000/svg" width="1070" height="652">
<path d="M0 0 C353.1 0 706.2 0 1070 0 C1070 215.16 1070 430.32 1070 652 C716.9 652 363.8 652 0 652 C0 436.84 0 221.68 0 0 Z " fill="#FEFEFE" transform="translate(0,0)"/>
<path d="M0 0 C0.66 0.33 1.32 0.66 2 1 C1.67 3.97 1.34 6.94 1 10 C0.67 10 0.34 10 0 10 C0 7.69 0 5.38 0 3 C-0.66 2.67 -1.32 2.34 -2 2 C-1.34 1.34 -0.68 0.68 0 0 Z " fill="#F4F4F2" transform="translate(561,356)"/>
</svg>
